<?xml version="1.0" encoding="UTF-8"?>
<svg xmlns="http://www.w3.org/2000/svg" height="24px" width="24px">
  <g style="fill:#000000">
    <path d="M 10.793385,15.627275 C 8.8221392,11.939443 7.8716631,9.8693014 7.3109796,8.0425754 6.9882164,6.9910021 6.9058654,5.6403426 7.1150555,4.8291773 7.6668166,2.6896434 9.543803,1.1358287 11.731099,1.0079044 c 1.911596,-0.11179989 3.798814,0.9711094 4.694507,2.6937654 1.193264,2.2949669 0.642139,4.5452729 -2.742705,11.1987672 -0.679821,1.336304 -1.322706,2.580375 -1.428633,2.764603 L 12.061672,18 Z m 1.746288,-7.5389049 c 1.453704,-0.4356613 1.907423,-2.1698918 0.851797,-3.2557917 -0.970571,-0.9984071 -2.550041,-0.730161 -3.210375,0.5452279 -0.2064416,0.3987274 -0.1940559,1.2720004 0.0239,1.6850746 0.242232,0.4590836 0.662734,0.8239151 1.138062,0.9873916 0.509356,0.1751804 0.717129,0.1817954 1.196617,0.038098 z"/>
    <path d="M 14.249511,17 A 10,3.038944 0 0 1 21.935719,20.305074 10,3.038944 0 0 1 12,23 10,3.038944 0 0 1 2.0642814,20.305074 10,3.038944 0 0 1 9.7504897,17 L 12,19.961056 Z"/>
  </g>
</svg>
